<svg width="20" height="20" viewBox="0 0 20 20" fill="none" xmlns="http://www.w3.org/2000/svg">
<path d="M16.6032 11.8883C15.8906 10.8164 15.526 9.5508 15.5591 8.2641V8.13467C15.557 6.77778 15.0508 5.47008 14.1387 4.46549C13.2266 3.4609 11.9737 2.83112 10.6233 2.69842V1.68884C10.6233 1.5172 10.5551 1.35259 10.4338 1.23122C10.3124 1.10985 10.1478 1.04167 9.97616 1.04167C9.80452 1.04167 9.63991 1.10985 9.51854 1.23122C9.39717 1.35259 9.32899 1.5172 9.32899 1.68884V2.73294C8.84671 2.78892 8.37384 2.90786 7.92247 3.08673C6.93253 3.49952 6.09007 4.20124 5.5051 5.10024C4.92014 5.99924 4.61986 7.05374 4.64347 8.12604C4.65406 9.49183 4.22105 10.8242 3.40953 11.9228L2.83139 12.7166C2.55735 13.084 2.39104 13.5204 2.35108 13.977C2.31111 14.4336 2.39908 14.8923 2.60512 15.3017C2.81116 15.711 3.12713 16.055 3.51763 16.2949C3.90813 16.5348 4.35773 16.6613 4.81605 16.6601H7.64634V16.9448C7.72279 17.5027 7.99872 18.0141 8.42307 18.3842C8.84742 18.7544 9.39148 18.9583 9.95459 18.9583C10.5177 18.9583 11.0618 18.7544 11.4861 18.3842C11.9105 18.0141 12.1864 17.5027 12.2628 16.9448V16.6601H15.1708C15.6211 16.6538 16.0614 16.5266 16.4456 16.2917C16.8298 16.0568 17.1437 15.723 17.3546 15.3251C17.5655 14.9272 17.6654 14.4799 17.6441 14.0301C17.6227 13.5803 17.4807 13.1445 17.2331 12.7684L16.6032 11.8883ZM10.9944 16.7981C10.9458 17.0334 10.8175 17.2448 10.6313 17.3965C10.445 17.5482 10.2121 17.6311 9.97185 17.6311C9.73159 17.6311 9.49869 17.5482 9.31242 17.3965C9.12614 17.2448 8.9979 17.0334 8.94931 16.7981V16.6601H10.9944V16.7981ZM15.1708 15.3657H4.81605C4.59796 15.365 4.38433 15.3039 4.19881 15.1892C4.01329 15.0746 3.86309 14.9108 3.76485 14.7161C3.6666 14.5214 3.62413 14.3033 3.64213 14.086C3.66014 13.8686 3.73792 13.6605 3.86686 13.4846L4.45363 12.6908C5.43742 11.3511 5.95839 9.7276 5.93781 8.06563C5.92652 7.26494 6.15456 6.47911 6.5927 5.80883C7.03084 5.13856 7.65913 4.61436 8.39706 4.30341C8.94603 4.08466 9.5319 3.97334 10.1229 3.97551C10.6708 3.97095 11.2142 4.07495 11.7218 4.28149C12.2293 4.48803 12.691 4.79303 13.0801 5.1789C13.4691 5.56477 13.7779 6.02386 13.9887 6.52969C14.1994 7.03551 14.3079 7.57807 14.3079 8.12604V8.2641C14.285 9.79615 14.724 11.2996 15.5677 12.5786L16.1545 13.4415C16.2903 13.6488 16.3595 13.8927 16.353 14.1404C16.3588 14.2993 16.3325 14.4576 16.2757 14.6061C16.2189 14.7545 16.1327 14.89 16.0223 15.0044C15.912 15.1188 15.7797 15.2097 15.6334 15.2718C15.4871 15.3339 15.3297 15.3658 15.1708 15.3657Z" fill="#99A1B7"/>
</svg>
